<svg xmlns="http://www.w3.org/2000/svg" viewBox="0 0 610.39 442.85"><defs><style>.cls-1,.cls-17,.cls-4,.cls-5,.cls-7{fill:none;}.cls-1,.cls-17,.cls-4,.cls-5,.cls-6,.cls-7{stroke:#abceef;stroke-miterlimit:10;}.cls-1,.cls-4,.cls-5,.cls-6,.cls-7{stroke-width:2px;}.cls-1{stroke-dasharray:5 5;}.cls-2{fill:#fff;}.cls-3{fill:#c0dfff;}.cls-5{stroke-dasharray:5.12 5.12;}.cls-6,.cls-8{fill:#abceef;}.cls-7{stroke-dasharray:5;}.cls-9{fill:#cfd8e2;}.cls-10{fill:#00183b;}.cls-11{fill:#004f73;}.cls-12{fill:#067196;}.cls-13{fill:#e6f4ff;}.cls-14{fill:#ffa968;}.cls-15{fill:#1494c6;}.cls-16{fill:#0bacff;}.cls-17{stroke-linecap:round;stroke-width:4px;}</style></defs><g id="Layer_2" data-name="Layer 2"><g id="OBJECT"><ellipse class="cls-1" cx="295.96" cy="190.82" rx="156.67" ry="152.05"/><circle class="cls-2" cx="303.21" cy="41.32" r="38.75"/><path class="cls-3" d="M328,45.84a25.43,25.43,0,1,1,.23-7.17h3.94a29.35,29.35,0,1,0-.18,7.17Z"/><path class="cls-3" d="M286.15,53.2A20,20,0,1,1,290,57.33l-2.19,2.19a23.15,23.15,0,1,0-3.9-4.1Z"/><path class="cls-3" d="M317.09,44.32a14.73,14.73,0,1,1-.29-6.44h3a17.69,17.69,0,1,0,.24,6.44Z"/><path class="cls-3" d="M314.1,41.93a11.62,11.62,0,1,1-11.62-11.62A11.62,11.62,0,0,1,314.1,41.93Z"/><path class="cls-3" d="M302.91,5.65a35.89,35.89,0,0,0-35.67,32.48h3.92a31.94,31.94,0,1,1,.38,9.28h-4A35.84,35.84,0,1,0,302.91,5.65Z"/><line class="cls-4" x1="90.58" y1="196.15" x2="93.08" y2="196.15"/><line class="cls-5" x1="98.2" y1="196.15" x2="157.1" y2="196.15"/><line class="cls-4" x1="159.66" y1="196.15" x2="162.16" y2="196.15"/><path class="cls-6" d="M90.74,196.21a2.89,2.89,0,1,1-2.89-2.89A2.88,2.88,0,0,1,90.74,196.21Z"/><circle class="cls-6" cx="128.46" cy="35.32" r="2.88"/><path class="cls-6" d="M509.35,50.29a2.89,2.89,0,1,1-2.89-2.88A2.89,2.89,0,0,1,509.35,50.29Z"/><line class="cls-4" x1="503.5" y1="190.84" x2="501" y2="190.84"/><line class="cls-5" x1="495.88" y1="190.84" x2="436.98" y2="190.84"/><line class="cls-4" x1="434.42" y1="190.84" x2="431.92" y2="190.84"/><circle class="cls-6" cx="506.23" cy="190.9" r="2.88"/><polyline class="cls-7" points="130.46 35.66 220.13 35.66 220.13 97.99"/><polyline class="cls-7" points="503.21 50.29 389.17 50.29 389.17 98.96"/><path class="cls-3" d="M595.39,392.61H30.3a10.36,10.36,0,0,1-10.36-10.36h0A10.36,10.36,0,0,1,30.3,371.89H595.39a10.36,10.36,0,0,1,10.36,10.36h0A10.36,10.36,0,0,1,595.39,392.61Z"/><rect class="cls-3" x="186.89" y="334.25" width="228.55" height="17.96" rx="7.54"/><rect class="cls-8" x="156.94" y="352.04" width="279.56" height="19.92" rx="8.11"/><path class="cls-3" d="M108.08,21.51A84.7,84.7,0,0,1,78.16,85.74l-7.45,6.2-.46-.38-6.89-5.75C44.68,70.2,34.21,46,34.21,21.67v-.1L70.25,0Z"/><path class="cls-8" d="M108.08,21.51A84.7,84.7,0,0,1,78.16,85.74l-7.45,6.2-.46-.38V83.12l.53.45,6.15-5.12a69.94,69.94,0,0,0,24.71-53L70.41,7.65l-.16.09V0Z"/><path class="cls-9" d="M101.64,25.41a69.94,69.94,0,0,1-24.71,53l-6.15,5.12-.53-.45V7.74l.16-.09Z"/><path class="cls-2" d="M70.25,7.74V83.12L64.72,78.5c-15.43-12.89-24.08-32.86-24.08-53v-.08Z"/><path class="cls-2" d="M83.06,38.59A12.57,12.57,0,0,0,70.49,26.23h-.37A12.56,12.56,0,0,0,57.93,38.58h-.41a3.19,3.19,0,0,0-3.19,3.19v8.65A11.54,11.54,0,0,0,65.87,62h8.69A11.54,11.54,0,0,0,86.1,50.42V41.77A3.18,3.18,0,0,0,83.06,38.59Zm-19.29,0a6.74,6.74,0,0,1,6.35-6.72h.39a6.74,6.74,0,0,1,6.74,6.73Z"/><path class="cls-9" d="M63.77,38.58h6.35V62H65.87A11.54,11.54,0,0,1,54.33,50.42V41.77a3.19,3.19,0,0,1,3.19-3.19h.41A12.56,12.56,0,0,1,70.12,26.24v5.62A6.74,6.74,0,0,0,63.77,38.58Z"/><path class="cls-10" d="M257.72,334.32h42.66a16.15,16.15,0,0,0,16.15-16.15h-49a9.79,9.79,0,0,0-9.79,9.79Z"/><rect class="cls-11" x="267.84" y="259.32" width="50.14" height="59.3"/><path class="cls-12" d="M171.32,250.64H411.89a0,0,0,0,1,0,0V263.9a19,19,0,0,1-19,19H190.37a19,19,0,0,1-19-19V250.64A0,0,0,0,1,171.32,250.64Z"/><path class="cls-11" d="M181.75,99.75h230a0,0,0,0,1,0,0V252.57a0,0,0,0,1,0,0H171.14a0,0,0,0,1,0,0V110.36A10.61,10.61,0,0,1,181.75,99.75Z"/><rect class="cls-12" x="275.56" y="259.32" width="50.14" height="59.3"/><path class="cls-10" d="M182.71,250.64H423.28a0,0,0,0,1,0,0V263.9a19,19,0,0,1-19,19H201.75a19,19,0,0,1-19-19V250.64a0,0,0,0,1,0,0Z"/><path class="cls-12" d="M192.35,99.75H413.63a9.64,9.64,0,0,1,9.64,9.64V252.57a0,0,0,0,1,0,0H182.71a0,0,0,0,1,0,0V109.39A9.64,9.64,0,0,1,192.35,99.75Z"/><rect class="cls-13" x="194.84" y="109.88" width="216.98" height="132.33"/><path class="cls-11" d="M334,334.32H291.32a16.15,16.15,0,0,1-16.15-16.15h49A9.79,9.79,0,0,1,334,328Z"/><ellipse class="cls-3" cx="300.86" cy="178.82" rx="41.88" ry="40.22"/><path class="cls-12" d="M301.36,129.91h0a22.51,22.51,0,0,0-22.51,22.51v24.12h45V152.42A22.51,22.51,0,0,0,301.36,129.91Zm12.05,35.67H289.07v-13a12.17,12.17,0,0,1,12.17-12.17h0a12.17,12.17,0,0,1,12.17,12.17Z"/><path class="cls-10" d="M306,129.91h0a22.51,22.51,0,0,0-22.51,22.51v24.12h45V152.42A22.51,22.51,0,0,0,306,129.91Zm12,35.67H293.7v-13a12.17,12.17,0,0,1,12.17-12.17h0A12.17,12.17,0,0,1,318,152.55Z"/><path class="cls-12" d="M268.75,161H330.1a0,0,0,0,1,0,0v32.87a30.68,30.68,0,0,1-30.68,30.68h0a30.68,30.68,0,0,1-30.68-30.68V161A0,0,0,0,1,268.75,161Z"/><path class="cls-10" d="M274.11,161H337a0,0,0,0,1,0,0v32.48A31.07,31.07,0,0,1,306,224.56h-.8a31.07,31.07,0,0,1-31.07-31.07V161A0,0,0,0,1,274.11,161Z"/><path class="cls-12" d="M309.68,187.6l3.5,11.52H301.74l3.47-11.49a6.81,6.81,0,0,1-3.47-5.74,6,6,0,0,1,4.9-5.91,5.19,5.19,0,0,1,1.12-.11,6,6,0,0,1,1.92,11.73Z"/><path class="cls-13" d="M307.43,187.6l3.5,11.52h-9.19l3.47-11.49a6.81,6.81,0,0,1-3.47-5.74,5,5,0,1,1,5.69,5.71Z"/><polyline class="cls-4" points="347.78 165.88 365.9 165.88 373.18 158.59 384.92 158.59"/><line class="cls-4" x1="347.78" y1="176.18" x2="374.62" y2="176.18"/><path class="cls-8" d="M386.41,158.52a2.75,2.75,0,1,1-2.75-2.75A2.75,2.75,0,0,1,386.41,158.52Z"/><polyline class="cls-4" points="348.77 186.48 366.89 186.48 374.18 193.76 385.91 193.76"/><circle class="cls-8" cx="384.65" cy="193.83" r="2.75"/><path class="cls-8" d="M377.29,176.15a2.75,2.75,0,1,1-2.74-2.75A2.75,2.75,0,0,1,377.29,176.15Z"/><polyline class="cls-4" points="255.32 168.02 237.2 168.02 229.92 160.74 218.18 160.74"/><line class="cls-4" x1="255.32" y1="178.32" x2="228.48" y2="178.32"/><path class="cls-8" d="M216.69,160.66a2.75,2.75,0,1,0,2.75-2.75A2.75,2.75,0,0,0,216.69,160.66Z"/><polyline class="cls-4" points="254.33 188.62 236.21 188.62 228.93 195.9 217.19 195.9"/><path class="cls-8" d="M215.7,196a2.75,2.75,0,1,1,2.75,2.75A2.75,2.75,0,0,1,215.7,196Z"/><path class="cls-8" d="M225.81,178.3a2.75,2.75,0,1,0,2.74-2.75A2.74,2.74,0,0,0,225.81,178.3Z"/><circle class="cls-8" cx="560.52" cy="27.63" r="17.62"/><path class="cls-2" d="M564.38,18.18a3.58,3.58,0,1,1-3.58-3.58A3.59,3.59,0,0,1,564.38,18.18Z"/><path class="cls-8" d="M555.63,43.73v8.76a1.43,1.43,0,0,0,.73,1.24l.38.21a1.42,1.42,0,0,1,.13,2.4l-.65.47a1.44,1.44,0,0,0-.59,1.16v1.4a1.43,1.43,0,0,0,1,1.36h0a1.42,1.42,0,0,1,.47,2.47l-.58.46a1.43,1.43,0,0,0-.52,1.11v1.82a1.44,1.44,0,0,1-.53,1.11l-2.25,1.83a1.41,1.41,0,0,0-.53,1.11v2.3a1.43,1.43,0,0,0,1.42,1.43h8.64a1.4,1.4,0,0,0,1-.42l3-3a1.42,1.42,0,0,0,.42-1V43.73a1.43,1.43,0,0,0-1.42-1.42h-8.66A1.43,1.43,0,0,0,555.63,43.73Z"/><polyline class="cls-4" points="572.73 48.78 587.09 48.78 592.86 43.01 602.16 43.01"/><line class="cls-4" x1="572.73" y1="56.94" x2="594" y2="56.94"/><path class="cls-8" d="M603.34,43a2.18,2.18,0,1,1-2.18-2.17A2.18,2.18,0,0,1,603.34,43Z"/><polyline class="cls-4" points="573.51 65.11 587.88 65.11 593.64 70.87 602.94 70.87"/><circle class="cls-8" cx="601.94" cy="70.93" r="2.18"/><path class="cls-8" d="M596.12,56.92a2.18,2.18,0,1,1-2.18-2.17A2.18,2.18,0,0,1,596.12,56.92Z"/><polyline class="cls-4" points="551.83 49 537.47 49 531.7 43.23 522.4 43.23"/><line class="cls-4" x1="551.83" y1="57.16" x2="530.56" y2="57.16"/><path class="cls-8" d="M521.22,43.17A2.18,2.18,0,1,0,523.4,41,2.19,2.19,0,0,0,521.22,43.17Z"/><polyline class="cls-4" points="551.05 65.32 536.68 65.32 530.91 71.09 521.62 71.09"/><circle class="cls-8" cx="522.62" cy="71.15" r="2.18"/><path class="cls-8" d="M528.44,57.14A2.18,2.18,0,1,0,530.62,55,2.19,2.19,0,0,0,528.44,57.14Z"/><path class="cls-8" d="M62.94,190H7.26c-.25,0-.51,0-.76,0a6.86,6.86,0,0,1-4.34-11.56L29.76,149a7.39,7.39,0,0,1,10.68,0L68,178.38a6.86,6.86,0,0,1-4.34,11.56C63.45,190,63.19,190,62.94,190Z"/><path class="cls-2" d="M18,169h34.4a6.08,6.08,0,0,1,6.08,6.08V201a0,0,0,0,1,0,0H11.89a0,0,0,0,1,0,0V175.08A6.08,6.08,0,0,1,18,169Z"/><path class="cls-3" d="M62,222.18H8.11A8.11,8.11,0,0,1,0,214.07V183.68c0-4.48,3.63,5,8.11,5H62c4.48,0,8.11-9.51,8.11-5v30.39A8.11,8.11,0,0,1,62,222.18Z"/><path class="cls-8" d="M21.4,219.89l41.67-31.18S39,217,21.4,219.89Z"/><path class="cls-8" d="M50.25,219.2l-43-30.38S32.36,216.71,50.25,219.2Z"/><path class="cls-9" d="M41.16,179a5.85,5.85,0,1,1-5.84-5.85A5.84,5.84,0,0,1,41.16,179Z"/><rect class="cls-9" x="32.04" y="183.62" width="1.91" height="2.68"/><rect class="cls-9" x="34.3" y="184.06" width="1.91" height="2.68"/><rect class="cls-9" x="36.57" y="183.56" width="1.91" height="2.68"/><path class="cls-2" d="M31.45,178.49l2.87,1.18a1.23,1.23,0,0,1-1.15,1.17C32.08,180.93,31.1,180.07,31.45,178.49Z"/><path class="cls-2" d="M39.15,178.52l-2.87,1.18a1.24,1.24,0,0,0,1.15,1.18C38.52,181,39.5,180.1,39.15,178.52Z"/><polygon class="cls-2" points="35.23 181.02 34.6 182.43 35.92 182.43 35.23 181.02"/><polygon class="cls-9" points="30.61 176.97 27.93 176.45 26.41 174.06 25.79 174.42 27.2 177.37 30.41 177.95 30.61 176.97"/><polygon class="cls-9" points="30.58 182.49 27.9 183 26.39 185.39 25.76 185.03 27.17 182.09 30.38 181.5 30.58 182.49"/><polygon class="cls-9" points="30.3 178.96 26.01 178.9 22.89 180.78 23.18 181.34 26.43 179.91 30.54 180.3 30.3 178.96"/><polygon class="cls-9" points="39.65 176.94 42.33 176.42 43.84 174.03 44.47 174.39 43.06 177.34 39.85 177.92 39.65 176.94"/><polygon class="cls-9" points="39.68 182.46 42.35 182.97 43.87 185.36 44.5 185 43.09 182.06 39.88 181.47 39.68 182.46"/><polygon class="cls-9" points="39.96 178.93 44.25 178.87 47.37 180.75 47.07 181.31 43.83 179.88 39.72 180.27 39.96 178.93"/><ellipse class="cls-3" cx="66.66" cy="434.55" rx="27.46" ry="3.92"/><path class="cls-14" d="M86,301.07l3.24-2.88s.74-2.94,1.11-3.85,1.17-2,1.56-2.87,1.24.68.45,2.36c0,0,2.38-1.75,2.56-2s.48-1.34,1.42-1.7.26,2.25-.35,2.91c0,0,.83,1.44.54,2.09a4.72,4.72,0,0,0-.52,2.07c.08.54-.1,1-1.57,1.75s-5.2,4.65-5.2,4.65A21.76,21.76,0,0,1,86,301.07Z"/><path class="cls-15" d="M57.17,289.65s-1.84,1,.79,7.15,12.95,15.66,19.49,17.37S90.7,302.32,90.7,302.32l-4.3-2.61-8.73,7s-14.81-15.65-16.88-17.06A2.93,2.93,0,0,0,57.17,289.65Z"/><polygon class="cls-10" points="92.49 287.77 88.95 313.47 105.72 313.77 109.26 287.93 92.49 287.77"/><path class="cls-14" d="M70.52,264.37s3.13.71,3.23,5.55,1.41,5.56,1.41,5.56-.8,4.84-2,6S69,282.64,69,282.64L68.3,286H59.92l.91-10S67.59,264.68,70.52,264.37Z"/><path class="cls-10" d="M73.35,261.85A6.22,6.22,0,0,1,75.06,268a5.21,5.21,0,0,1-4.84,3.63s.3,2.52-1.11,3.13c0,0-.81-2.12-2.12-1.92s-2.32,3.53-1.21,5.25a2.35,2.35,0,0,0,2.52,1.31s.3,2.42-2.83,2.73-7.87.6-10.69-5.05a11.33,11.33,0,0,1,0-10.39,4.64,4.64,0,0,1-4.34-.51c-2-1.51-.61-7.57,3.23-8.48s4.64,4.44,4.64,4.44S65.58,256.4,73.35,261.85Z"/><path class="cls-16" d="M76.82,312.42c-.43,6.83-1.17,12.35-1.17,12.35H73.74l-19.21-.14s-4.48-27.87-4.05-33.08c.46-5.42,8.31-6.92,8.31-6.92s11,.13,14.66,2.66C77.38,290,77.44,302.56,76.82,312.42Z"/><path class="cls-16" d="M72.3,287.62s-2.08.23-2,6.92S76.45,313.93,81.87,318s16.73-6,16.73-6l-3-4-10.73,3.23S77,291.08,75.64,289A2.92,2.92,0,0,0,72.3,287.62Z"/><path class="cls-14" d="M95.91,308.16l3.92-1.85s1.54-2.61,2.16-3.38,1.69-1.62,2.31-2.31,1,1-.23,2.39c0,0,2.76-1,3-1.16s.84-1.15,1.84-1.23-.38,2.23-1.15,2.69c0,0,.38,1.62-.08,2.16a4.67,4.67,0,0,0-1.08,1.84c-.07.54-.38.93-2,1.23s-6.3,3-6.3,3A21.87,21.87,0,0,1,95.91,308.16Z"/><path class="cls-15" d="M76.82,312.42c-.43,6.83-1.17,12.35-1.17,12.35H73.74l.79-10.6c-4-5.7-4.47-15.69-4.47-15.69l6.16,12.3Z"/><path class="cls-10" d="M75.76,324.16s7.38,15.85-.43,56.42H54.1S50,355.43,50.18,343.2s4.35-18.58,4.35-18.58Z"/><path class="cls-10" d="M65.13,371.39s-1.2,18.18,3.44,58.84l5.93.13.5-56.19Z"/><path class="cls-10" d="M57.3,369.05S52.74,389,52.06,426.39l5,1.92,8.85-55.56Z"/><path class="cls-16" d="M68.31,429.6s-1.07,5-.63,5.62,6.69.57,8.4.19,4.35.31,6.5-.76-8.21-4.74-8.21-4.74Z"/><path class="cls-16" d="M51.85,425.19s-3,4.17-2.87,4.87,5.87,3.26,7.58,3.61,3.85,2.07,6.24,2S57.25,428,57.25,428Z"/><ellipse class="cls-3" cx="138.32" cy="432.88" rx="27.46" ry="3.92"/><path class="cls-14" d="M126.23,258.35s-3.28.95-3.09,6.11-1.16,6-1.16,6,1.16,5.1,2.53,6.32,4.47.92,4.47.92l1,3.5,8.92-.52-1.59-10.58S129.37,258.49,126.23,258.35Z"/><path class="cls-10" d="M133.48,253c-4.45-.43-13.91,3.45-14.64,4.56s4.06,3.57,8.73,4.43c0,0-.86,2.7.86,4.3,0,0,.13,2.59,1,3.33,0,0,.25-2.59,1.6-2.59s1.84,3,1.6,5a2.21,2.21,0,0,1-2.34,2s4.55,2.83,7.75,1.84c0,0,5.78-7.89,5.42-12.06-.41-4.71-3.37-5.86-3.37-5.86S139.3,253.59,133.48,253Z"/><path class="cls-16" d="M148.93,309.48c-1.39,12.6-2.31,23.15-2.31,23.15l-20.78.4-2.76.06s-.5-4.5-1.16-10.64c-1.39-12.78-3.47-32.7-3.15-34.06.46-2,7.54-4.3,7.54-4.3l.31-2.31s.15-.62,5.53-2.16,8-.46,8-.46l.3,2.16s6.78,4.16,8.16,4.92S150.31,296.86,148.93,309.48Z"/><path class="cls-15" d="M127.7,316.24c-2.87,6.83-1.94,16-1.86,16.79l-2.76.06s-.5-4.5-1.16-10.64V322l6.69-25.46S130.7,309.09,127.7,316.24Z"/><path class="cls-16" d="M119.23,287.55c-3.13,2.12-4.77,32.54-4.77,32.54l-15.69,5.23,1.85,6.31s14.31-.47,19.08-4.31,8.92-30.77,8.92-30.77S123.77,284.47,119.23,287.55Z"/><polygon class="cls-10" points="122.46 331.78 121.81 347.47 126 422.4 136.46 422.24 135.69 346.51 136.73 345.47 139.5 377.78 146.62 422.24 156.77 420.86 151.73 375.94 146.66 332.2 122.46 331.78"/><path class="cls-10" d="M127.12,420.59l.23,4s-8.77,5.65-9.12,6.57,7.27,1,9.23.93,6.58.57,9.12-.12l-1.5-11.65Z"/><path class="cls-10" d="M147.52,420.19l.65,4s-8.13,6.54-8.38,7.5,7.34.27,9.28-.05,6.6-.12,9.05-1.07l-2.71-11.44Z"/><path class="cls-14" d="M99.16,326.16l-2.31.7a15.61,15.61,0,0,0-3.54-.62c-1.46,0-2.46.08-2.23.46s2.38.85,3.08,1.08-3.23,1.31-3.93,1.31-3-.16-3.07.31,2.15,1.15,3.15,1.15a3.15,3.15,0,0,1-1.69.31c-.77-.16-.54-1.08-1.23-.62s0,1.85.69,2.08.85,1.38,1.38,1.46a11.31,11.31,0,0,1,2,.54,3.21,3.21,0,0,0,2.08.15,10.09,10.09,0,0,0,1.92-.92,17.67,17.67,0,0,0,2.93-2.39l2.07-.61Z"/><path class="cls-3" d="M610.39,438.69c0,2.21-12.57,4-28.07,4s-28.06-1.8-28.06-4,12.56-4,28.06-4S610.39,436.47,610.39,438.69Z"/><path class="cls-11" d="M551,332H508.54l-5.8-25.81a3,3,0,0,1,2.88-3.59h33.92a6.06,6.06,0,0,1,5.91,4.72Z"/><path class="cls-13" d="M547.8,329.8H511.36l-5-21.43a2.47,2.47,0,0,1,2.47-3H538a5.17,5.17,0,0,1,5.07,3.93Z"/><rect class="cls-12" x="508.62" y="332" width="49.68" height="4.09"/><path class="cls-8" d="M573.79,341.59H492.11a2.72,2.72,0,0,1-2.72-2.71h0a2.72,2.72,0,0,1,2.72-2.72h81.68a2.72,2.72,0,0,1,2.71,2.72h0A2.72,2.72,0,0,1,573.79,341.59Z"/><path class="cls-17" d="M483.72,429.22l17.47-79.5c1.94-9.76,12.75-9.84,14.79-.11l11.14,79"/><path class="cls-17" d="M550.3,426.49l12.21-78.66c1.94-9.76,12.75-9.84,14.78-.11l16.4,78.16"/><path class="cls-14" d="M552.6,291s-.79-1.65-1.57-2-2.28-.66-2.91-1.61a8,8,0,0,1-1-3.3c0-.55,1.1.24,1.25.71a8.44,8.44,0,0,0,.48,1.06s.31-4.44,0-5.27-.75-1.1-.63-1.65.82,0,1.22.32,1.29,2,1.49,2a2.82,2.82,0,0,1,1.38.28c.66.39,1.29.55,1.76.9s.59,1.14.71,1.69,0,2.2,0,2.63a9.92,9.92,0,0,0,.83,1.89Z"/><path class="cls-10" d="M574.14,310.34s-14.62-7.19-17.33-10.26-6.25-6.37-4.13-9.79,5-2.47,6-1.65,5.66,6.37,7.31,7.08,8-.71,10.26,2.71S576.73,310.1,574.14,310.34Z"/><path class="cls-14" d="M540.26,327.65a28.48,28.48,0,0,1-4.63-3.08c-1.25-1.25-2-2.6-4.23-3.08s-4.34.57-4.34,1.15,2.12.29,2.12.29l.82.12s-3,.29-3.32.8a3.42,3.42,0,0,0-.51,1,2.84,2.84,0,0,0-.29,1.08c0,.51-.29.72.22,1.16s1.15-.73,1.15-.73,2.39,2.46,4,3a3.52,3.52,0,0,0,2.38.14,6.31,6.31,0,0,0,3.69,2.09C540,332.15,540.26,327.65,540.26,327.65Z"/><path class="cls-16" d="M565.34,295.91s-3.94,3-5.19,5,3,30.82,3,30.82l1,11.95,27.36-1.1s1.25-38.05-4.25-45.12S565.34,295.91,565.34,295.91Z"/><path class="cls-14" d="M566.83,269.78s-3.19.72-3.3,5.67-1.44,5.67-1.44,5.67.82,5,2.06,6.19,4.23,1.14,4.23,1.14l.72,3.4h8.56l-.93-10.21S569.82,270.09,566.83,269.78Z"/><path class="cls-10" d="M566.48,293s11.79-5.77,15.68-5.18,2.83,4,2.83,4,5.07.11,4.6,4.83-14.27-1.42-18.52-.94-6.25,1.65-7,.47S565.06,293.83,566.48,293Z"/><path class="cls-10" d="M566.12,272.45a8.06,8.06,0,0,0,.47,3.14,3.67,3.67,0,0,0,2.13,2.67s-.71,2.54-.06,2.95.88-2.42,1.88-2.65,1.77,1.41,1.48,3.36-1.3,2.24-1.83,2.42,2,3.3,6.84,2.24,7.84-10.14,4.6-14.09c0,0,.88-3.07-4.42-5s-10.73-2.94-13.15-1.94-.06,3.12-.06,3.12-1.74.13-2,1.12C561.8,271,563.29,272.49,566.12,272.45Z"/><path class="cls-10" d="M560.15,300.94s3.77,1.73,6,11-2.51,20.13-6,23.11-18.4.95-21.86-1.88-.47-6,1.26-6.29,11.79.63,11.79.63.16-1.58,1.1-1.89,2.52-2.36,3.78-8.65S556.53,306.6,560.15,300.94Z"/><path class="cls-10" d="M564.08,343.71l.31,3,27.2-.16-.15-3.93S583.89,340.72,564.08,343.71Z"/><polygon class="cls-10" points="564.39 346.7 565.96 360.85 571.12 429.06 583.54 428.46 580.15 359.87 581.22 358.81 584.05 391.82 591.42 428.46 603.08 427.4 596.54 389.94 591.36 345.24 564.39 346.7"/><path class="cls-10" d="M573.28,428l.23,4.13s-9,5.78-9.31,6.72,7.43,1.06,9.43.95,6.72.59,9.32-.12l-1.54-11.91Z"/><path class="cls-10" d="M593.06,426.05l.66,4.07s-8.3,6.69-8.56,7.67,7.5.27,9.49-.05,6.74-.12,9.25-1.1L601.12,425Z"/><ellipse class="cls-3" cx="467.34" cy="438.99" rx="27.04" ry="3.86"/><path class="cls-14" d="M471.15,271.44s3.08.7,3.18,5.47,1.39,5.46,1.39,5.46-.8,4.77-2,6-4.07,1.09-4.07,1.09l-.7,3.28h-8.25l.9-9.84S468.27,271.74,471.15,271.44Z"/><path class="cls-14" d="M465.84,376.81s-1.18,17.9,3.38,57.93l5.85.12.49-55.32Z"/><path class="cls-14" d="M458.13,374.5S453.64,394.15,453,431l4.92,1.89,8.71-54.7Z"/><path class="cls-16" d="M477.35,318.75c-.42,6.73-1.16,12.16-1.16,12.16l-1.87,0-18.92-.13s-4.41-27.44-4-32.57c.45-5.34,8.18-6.81,8.18-6.81s10.79.13,14.43,2.62C477.9,296.63,478,309,477.35,318.75Z"/><path class="cls-10" d="M476.3,330.31s7.27,15.6-.41,55.55H455s-4.09-24.77-3.86-36.81,4.28-18.29,4.28-18.29Z"/><path class="cls-10" d="M469,434.12s-1.05,5-.62,5.53,6.59.56,8.27.18,4.29.32,6.4-.74-8.08-4.66-8.08-4.66Z"/><path class="cls-10" d="M452.77,429.78s-3,4.1-2.83,4.79,5.78,3.21,7.46,3.55,3.79,2,6.15,1.94-5.46-7.56-5.46-7.56Z"/><path class="cls-14" d="M496.83,336.59a14.38,14.38,0,0,0,4,.91c1.59,0,5.8-1.7,7.27-1.7s2.73.68,3.07.11-2.84-2.16-3.41-2.27a10.51,10.51,0,0,1-2.38-1.48c-.46-.34-6,.23-6,.23Z"/><path class="cls-16" d="M472.51,294.79s-2.5,3.4-2.27,12,2.5,21.81,5.46,26.13,21.35,5,21.35,5l3.41-6.13-18.86-5.68s-3.33-27.38-5.45-29.76S472.51,294.79,472.51,294.79Z"/><path class="cls-10" d="M470.36,275.25s.45,1.47-1.37,3.63a3,3,0,0,1-.34,2.5c-.79,1.14.12-2.16-2.27-2s-1.59,4.09-.91,4.77a3.12,3.12,0,0,0,1.93.68s1.48,6.81-.23,12.84-11.24,5-14.42.56.11-12.38,1.81-17.38,1.82-12.15,8.64-13.63,11.13-.57,13.06,3.64.12,6.24-.56,6.7-2.85-1.71-2.85-1.71Z"/><rect class="cls-8" x="515.96" y="150.09" width="45.21" height="71.09" rx="5.41"/><rect class="cls-9" x="515.96" y="160.82" width="45.21" height="49.14"/><rect class="cls-2" x="522.56" y="167.6" width="5.78" height="5.63"/><rect class="cls-2" x="536.49" y="167.6" width="5.78" height="5.63"/><rect class="cls-2" x="549.16" y="167.6" width="5.78" height="5.63"/><rect class="cls-2" x="522.56" y="180.69" width="5.78" height="5.63"/><rect class="cls-2" x="536.49" y="180.69" width="5.78" height="5.63"/><rect class="cls-2" x="549.16" y="180.69" width="5.78" height="5.63"/><rect class="cls-2" x="522.56" y="193.56" width="5.78" height="5.63"/><rect class="cls-2" x="536.49" y="193.56" width="5.78" height="5.63"/><rect class="cls-2" x="549.16" y="193.56" width="5.78" height="5.63"/><path class="cls-2" d="M545.71,156.45H532.2a.8.8,0,0,1-.8-.8h0a.79.79,0,0,1,.8-.79h13.51a.79.79,0,0,1,.8.79h0A.8.8,0,0,1,545.71,156.45Z"/><path class="cls-2" d="M541.84,215.49a3.2,3.2,0,1,1-3.19-3.2A3.19,3.19,0,0,1,541.84,215.49Z"/><circle class="cls-8" cx="590.5" cy="185.01" r="10.12"/><path class="cls-2" d="M595.93,182.79a2.06,2.06,0,1,0,2.05,2.06A2.06,2.06,0,0,0,595.93,182.79Z"/><path class="cls-8" d="M581.25,187.82h-5a.8.8,0,0,1-.71-.42l-.13-.22a.81.81,0,0,0-1.37-.08l-.27.38a.84.84,0,0,1-.67.34h-.8a.82.82,0,0,1-.78-.58h0a.82.82,0,0,0-1.42-.27l-.27.33a.82.82,0,0,1-.63.31h-1a.8.8,0,0,0-.63.3l-1.06,1.29a.81.81,0,0,1-.63.3h-1.33a.81.81,0,0,1-.81-.81v-5a.82.82,0,0,1,.23-.58l1.7-1.7a.86.86,0,0,1,.58-.24h15.08a.82.82,0,0,1,.82.82v5A.82.82,0,0,1,581.25,187.82Z"/></g></g></svg>